<?xml version="1.0" encoding="utf-8"?>
<!-- Generator: Adobe Illustrator 19.0.1, SVG Export Plug-In . SVG Version: 6.00 Build 0)  -->
<svg version="1.1" id="Layer_1" xmlns="http://www.w3.org/2000/svg" xmlns:xlink="http://www.w3.org/1999/xlink" x="0px" y="0px"
	 viewBox="0 0 231.1 107.4" style="enable-background:new 0 0 231.1 107.4;" xml:space="preserve">
<style type="text/css">
	.Arched_x0020_Green{fill:url(#SVGID_1_);stroke:#FFFFFF;stroke-width:0.25;stroke-miterlimit:1;}
	.st0{fill:#6F1200;}
	.st1{fill:none;}
	.st2{fill:#FFFFFF;}
	.st3{fill:#25408F;}
	.st4{fill:#D85D29;}
	.st5{fill:#006A51;}
</style>
<linearGradient id="SVGID_1_" gradientUnits="userSpaceOnUse" x1="-281.4101" y1="360.0886" x2="-280.703" y2="359.3814">
	<stop  offset="0" style="stop-color:#20AC4B"/>
	<stop  offset="0.9831" style="stop-color:#19361A"/>
</linearGradient>
<path class="st0" d="M154.8,66.3c-2,0.2-0.2,3.1-1.5,3.5c-1,0.3-1.3,0.7-3.2,1.6c-2,0.8-5.2,3.3-5.8,5.9c-0.8,3.4,0.9,4.9,1.9,5.4
	c-0.1,3.8,2.3,12.3,5.3,14c3,1.7,3.9,2.3,5,2.2c3-0.3,1.5,1.4,2.1,1.7c0.5,0.3,1-0.2,1.3-0.9c0.2-0.4-0.7-1.1,0.4-1.5
	c1.1-0.4,5.8-1.8,7-4.7c1.2-3,1.1-11.5,1.2-12.6c2.8-2.9,2.2-4.5,1.3-6.3c-0.9-1.8-2.6-3.3-4.6-3.8c-2-0.5-4.7-0.9-5.6-1.4
	c-0.9-0.4-1.6-0.3-1.9-1.6C157.2,66.3,156,66.2,154.8,66.3"/>
<rect x="13.6" y="6.3" class="st1" width="203.9" height="94.8"/>
<rect x="24.2" y="32.2" width="186.9" height="24.8"/>
<path class="st2" d="M205.3,43.5h1.8V42h-1.8v-3.5h-1.7V42h-1v1.6h1v8.3h1.7V43.5z M199.1,43.5c-0.4-1-1.5-1.8-2.6-1.8
	c-1.6,0-2.9,1.1-2.9,2.8c0,3.1,4.5,2.4,4.5,4.6c0,0.9-0.7,1.5-1.6,1.5c-1.1,0-1.6-0.7-2-1.6l-1.5,0.6c0.5,1.6,1.8,2.5,3.5,2.5
	c1.8,0,3.3-1.3,3.3-3.2c0-1.7-1.1-2.4-2.3-2.8c-1.2-0.5-2.3-0.8-2.3-1.7c0-0.6,0.6-1.1,1.2-1.1c0.6,0,1.1,0.5,1.3,1L199.1,43.5z
	 M187.9,37.1c-0.7,0-1.2,0.5-1.2,1.2c0,0.7,0.5,1.2,1.2,1.2c0.7,0,1.2-0.5,1.2-1.2C189.1,37.6,188.5,37.1,187.9,37.1 M188.7,42H187
	v9.9h1.7V42z M182.1,34.5h-1.7v17.3h1.7V34.5z M175.9,42h-1.7v1.4h0c-0.8-1.1-2-1.7-3.4-1.7c-3,0-4.7,2.4-4.7,5.2
	c0,2.7,1.8,5.2,4.7,5.2c1.4,0,2.5-0.5,3.4-1.6h0v1.4h1.7V42z M171,43.3c2.1,0,3.3,1.6,3.3,3.6c0,2-1.1,3.7-3.3,3.7
	c-2.1,0-3.2-1.8-3.2-3.8C167.8,45,169,43.3,171,43.3 M160,42h-1.7v9.9h1.7v-4.9c0-1.3,0.1-3.7,1.9-3.7c0.4,0,0.7,0.2,1,0.4l0.8-1.5
	c-0.5-0.3-0.9-0.5-1.5-0.5c-1.1,0-1.6,0.6-2.2,1.3h0V42z M147.7,42H146v5.7c0,2.6,1,4.5,3.9,4.5c2.9,0,3.9-1.8,3.9-4.5V42h-1.7v5.5
	c0,1.7-0.2,3.1-2.2,3.1c-2,0-2.2-1.4-2.2-3.1V42z M141.4,43.5h1.8V42h-1.8v-3.5h-1.7V42h-1v1.6h1v8.3h1.7V43.5z M135.1,42h-1.7v1.4
	h0c-0.8-1.1-2-1.7-3.4-1.7c-3,0-4.7,2.4-4.7,5.2c0,2.7,1.8,5.2,4.7,5.2c1.4,0,2.5-0.5,3.4-1.6h0v1.4h1.7V42z M130.2,43.3
	c2.1,0,3.3,1.6,3.3,3.6c0,2-1.1,3.7-3.3,3.7c-2.1,0-3.2-1.8-3.2-3.8C126.9,45,128.2,43.3,130.2,43.3 M107.2,51.8h1.8V39.6l12.3,12.9
	V36h-1.8v12.3l-12.3-12.9V51.8z M94.1,42h-1.7v9.9h1.7v-4.9c0-1.3,0.1-3.7,1.9-3.7c0.4,0,0.7,0.2,1,0.4l0.8-1.5
	c-0.5-0.3-0.9-0.5-1.5-0.5c-1.1,0-1.6,0.6-2.2,1.3h0V42z M81.1,45.8c0.2-1.4,1.6-2.6,3-2.6c1.5,0,2.7,1.2,2.9,2.6H81.1z M88.7,47.3
	c0.2-2.9-1.5-5.6-4.7-5.6c-3.1,0-4.8,2.4-4.8,5.3c0,2.8,1.9,5.1,4.8,5.1c2,0,3.6-1,4.6-2.8l-1.4-0.8c-0.7,1.2-1.6,2-3,2
	c-1.9,0-3.2-1.5-3.2-3.3H88.7z M75.4,43.5h1.8V42h-1.8v-3.5h-1.7V42h-1v1.6h1v8.3h1.7V43.5z M69.2,43.5c-0.4-1-1.5-1.8-2.6-1.8
	c-1.6,0-2.9,1.1-2.9,2.8c0,3.1,4.5,2.4,4.5,4.6c0,0.9-0.7,1.5-1.6,1.5c-1.1,0-1.6-0.7-2-1.6L63,49.6c0.5,1.6,1.8,2.5,3.5,2.5
	c1.8,0,3.3-1.3,3.3-3.2c0-1.7-1.1-2.4-2.3-2.8c-1.2-0.5-2.3-0.8-2.3-1.7c0-0.6,0.6-1.1,1.2-1.1c0.6,0,1.1,0.5,1.3,1L69.2,43.5z
	 M59.2,42h-1.7v1.4h0c-0.8-1.1-2-1.7-3.4-1.7c-3,0-4.7,2.4-4.7,5.2c0,2.7,1.8,5.2,4.7,5.2c1.4,0,2.5-0.5,3.4-1.6h0v1.4h1.7V42z
	 M54.3,43.3c2.1,0,3.3,1.6,3.3,3.6c0,2-1.1,3.7-3.3,3.7c-2.1,0-3.2-1.8-3.2-3.8C51.1,45,52.3,43.3,54.3,43.3 M28.8,51.8h1.8l2-10.7
	h0l5.1,11.4l5.1-11.4h0l2,10.7h1.8l-3.2-16.7l-5.8,13.3L32,35.1L28.8,51.8z"/>
<path d="M190,25.3h2V11.4l14.1,14.8V7.3h-2v14L190,6.5V25.3z M181.4,7.3h-2v18.1h2V7.3z M170.9,9.7c-1-1.8-2.7-2.8-4.7-2.8
	c-2.7,0-5.1,1.8-5.1,4.6c0,2.6,1.8,3.7,3.9,4.6l1.1,0.5c1.7,0.8,3.3,1.5,3.3,3.6c0,2-1.8,3.5-3.7,3.5c-1.9,0-3.4-1.5-3.6-3.4l-2,0.6
	c0.6,2.8,2.7,4.7,5.6,4.7c3.1,0,5.7-2.4,5.7-5.6c0-2.9-2-4.1-4.3-5.1l-1.2-0.5c-1.2-0.6-2.8-1.3-2.8-2.8c0-1.7,1.4-2.8,3-2.8
	c1.5,0,2.4,0.7,3.1,2L170.9,9.7z M136.4,25.3h2V11.4l14.1,14.8V7.3h-2v14L136.4,6.5V25.3z M119.3,8.8c4.2,0,7.4,3.4,7.4,7.5
	c0,4.1-3.3,7.5-7.4,7.5c-4.1,0-7.4-3.4-7.4-7.5C111.9,12.2,115.2,8.8,119.3,8.8 M119.3,6.9c-5.2,0-9.4,4.2-9.4,9.4
	c0,5.2,4.3,9.3,9.4,9.3c5.2,0,9.4-4.1,9.4-9.3C128.8,11.1,124.5,6.9,119.3,6.9 M102.6,8.7c-1.6-1.2-3.4-1.8-5.4-1.8
	c-5.2,0-9.4,4.2-9.4,9.4c0,5.1,4.3,9.3,9.4,9.3c1.9,0,3.8-0.6,5.4-1.8v-2.5c-1.4,1.4-3.4,2.4-5.5,2.4c-4.1,0-7.3-3.5-7.3-7.5
	c0-4,3.3-7.5,7.3-7.5c2.1,0,4.1,0.9,5.5,2.4V8.7z M80.4,9.7c-1-1.8-2.7-2.8-4.7-2.8c-2.7,0-5.1,1.8-5.1,4.6c0,2.6,1.8,3.7,3.9,4.6
	l1.1,0.5c1.7,0.8,3.3,1.5,3.3,3.6c0,2-1.8,3.5-3.7,3.5c-1.9,0-3.4-1.5-3.6-3.4l-2,0.6c0.6,2.8,2.7,4.7,5.6,4.7
	c3.1,0,5.7-2.4,5.7-5.6c0-2.9-2-4.1-4.3-5.1l-1.2-0.5c-1.2-0.6-2.8-1.3-2.8-2.8c0-1.7,1.4-2.8,3-2.8c1.5,0,2.4,0.7,3.1,2L80.4,9.7z
	 M62.1,7.3h-2v18.1h2V7.3z M29.7,7.3h-2.2l6.9,19l5.9-14.6l5.9,14.6l6.9-19h-2.2l-4.8,13.6L40.3,6.3l-5.9,14.5L29.7,7.3z"/>
<path class="st3" d="M47.1,98.8c0.3,0.2,0.5,0,0.9,1c0,0,0-0.5-0.3-1c-1.8-1.6-4.5-4.6-6-6c2.4-1.1,5.1-2.8,7.3-5.7
	c1.4-1.8,3.5-8,2.8-10.3c-0.7-2.7-3.5-3.3-2.9-6.1c0.4-2.1,1-1.7,2.8-3.9c0,0-2.2,0.3-3.1,0.5c-1,0.1-1.3-0.9-4.3-0.6
	c-2.9,0.3-4.7,2.3-5.7,6.2c-1.5,0.4-3.9,1.2-6.8,4c-4.4,4.2-2.3,1.8-5.6,5.6C19.9,90,11.8,93.7,13.9,93c3.4-1.1,4.3-2.1,5.1-1.8
	c0.8,0.4,0.7-0.2-0.6,1.2c1.5-1.2,2.8-1.1,5-1.2c1.9-0.1,2.3,0.2-1.1,3.5C19,98,23.1,95.9,24,95.6c3.1-1,4.1-2.1,7.2-2.4
	c1.2-0.1,1.9,0.1,2.4,0.4c0.4,1.1,1.2,3.1,1.3,4c0,0.1,0,0.2,0.1,0.4c0,0-0.1,0.1-0.2,0.1c-0.1,0-0.4,0.2-0.5,0.3
	c-0.5,0.4-0.2,0.5-0.2,0.5s-0.1,0,0.2-0.4c0.2-0.2,0.4-0.1,0.7-0.1c0.1,0,0.1,0.3,0.2,0.5c0.1,0.2,0,0.9,0.1,0.9
	c0.1,0,0-0.7,0.2-0.9c0.1-0.1,0.4,0.8,0.4,0.8c0.3,0-0.1-0.8-0.1-1c0-0.1,0.2,0,0.3,0.2c0.2,0.2,0.5,0.5,0.5,0.5
	c0-0.5-0.6-0.7-0.7-0.9c-0.6-0.8-1-2.7-1.6-4.5c0.5,0.4,0.6,0.7,1.5,0.6c1.4-0.2,3.3-0.6,5.3-1.5c0,0.1,0.3,0.4,0.3,0.4
	c0.8,0.3,4.5,3.8,4.3,4.7c-0.4,1.5-0.1,1.6-0.1,1.6c0-0.2,0.1-0.6,0.2-0.7c0.1-0.1,0.1-0.8,0.4-0.6c0.1,0.1,0.1,0.1,0.3,1.1
	c0.1,0.6,0.3,0.9,0.3-0.2C46.5,98.4,46.6,98.5,47.1,98.8"/>
<path d="M107.9,72.5l-4,17.1v10.6c0,0.6,0.4,0.9,0.8,0.9H115c0.6-0.5,0.9-1.2,0.9-1.2v-13c0,0,1,0,1.5-0.1c0.5-0.1,0.8-0.5,0.8-1
	V72.5H107.9z"/>
<path d="M118.3,70.2c0,0.4-0.3,0.8-0.8,0.8h-6.4c-0.4,0-0.8-0.3-0.8-0.8v-3.7c0-0.4,0.3-0.8,0.8-0.8h6.4c0.4,0,0.8,0.3,0.8,0.8V70.2
	z"/>
<path d="M135,72.5l4,17.1v10.6c0,0.6-0.4,0.9-0.8,0.9h-10.4c-0.6-0.5-0.9-1.2-0.9-1.2v-13c0,0-1,0-1.5-0.1c-0.5-0.1-0.8-0.5-0.8-1
	V72.5H135z"/>
<path d="M124.6,70.2c0,0.4,0.3,0.8,0.8,0.8h6.4c0.4,0,0.8-0.3,0.8-0.8v-3.7c0-0.4-0.3-0.8-0.8-0.8h-6.4c-0.4,0-0.8,0.3-0.8,0.8V70.2
	z"/>
<path d="M123,83.8c0,0.4-0.3,0.8-0.8,0.8h-1.7c-0.4,0-0.8-0.3-0.8-0.8V73.2c0-0.4,0.3-0.8,0.8-0.8h1.7c0.4,0,0.8,0.3,0.8,0.8V83.8z"
	/>
<path class="st4" d="M93.2,68.9C90.7,69,87,71.3,85,72.4c-3.5,1.9-4.5,3.6-6.4,6.4c0,0-0.2-0.2-0.1-0.5c0.3-0.6-0.1-0.9-0.5-0.8
	c0,0,0-0.2,0-0.3c1.1-3.2,2.6-6.6,3.7-7.2c0-0.2-0.2-0.4-0.2-0.4c-1.1,1.4-1.9,2.2-3.7,7.5c-0.1,0-0.2,0-0.2,0
	c-0.2,0-0.1,0.1-0.4,0.1c-2-5.6-2.9-6.3-4.1-7.8c0,0-0.1,0.2-0.2,0.4c1.2,0.6,2.8,4.1,4,7.4c-0.1,0.1-0.1,0.3-0.2,0.4
	c-0.3-0.1-0.6,0.2-0.5,0.6c0.1,0.4,0.2,0.7,0.1,0.8c-0.4-0.3-1.2-2.2-2.1-3.2c-0.8-1-2.3-2.4-4.8-3.7c-4.6-2.4-2.7-1.5-4.4-2.4
	c-1.2-0.6-5.7-1.4-8.7,0C56,70,56.1,71,56.1,71.5c0.1,0.5,0.1,1.9,0.5,3.3c0.5,1.4,0.4,2.3,1.2,4.4c0.7,1.7,1.3,2.7,2.2,3
	c1.1,0.4,2.8-0.1,5.1,0.1c-2,1.2-3.3,3.7-3.9,5.6c-0.5,1.3-0.1,1.8,0.6,3.3c0.8,1.7,1.6,1.6,3,3.3c1.2,1.4,1.8,1.4,3.6,2.2
	c1.8,0.8,1.8,0.4,3.3,1c1.3,0.5,3.1-0.1,3.2-0.2c0.7-0.4,1.1-1.3,1.5-2.2c0.3-0.7,0.1-3.1,0.1-3.5c0,0,0.1,0.7,0.4,0.9
	c0,0.2,0.1,0.6,0.4,0.6c0.3,0,0.4-0.2,0.4-0.5c0,0,0.1,0,0.5-1.2c0,0.3-0.1,2.2-0.2,2.8C77.8,95,79,97,79.6,97.4
	c0.2,0.2,0.9,0.5,2.2,0.5c1.3,0.1,1.5-0.4,3.6-0.8c1.4-0.3,2-1,2.4-1.3c0.4-0.2,1.5-0.5,2.3-1.6c0.8-1.1,1.2-1.4,1.7-1.9
	c0.5-0.5,1.3-1.5,1.8-3.1c0.3-0.9-0.8-4.5-3.6-7c0.4,0,3.3,0.3,5-0.1c1.1-0.3,1.6-1.7,2-2.5c0.6-1,0.8-4.2,1.5-5.8
	c0.6-1.3,0.6-2.7,0.6-3.4C99.1,69.8,97.1,68.6,93.2,68.9"/>
<path class="st5" d="M174.6,76.5c0.1-0.8,0.5-2.1,1.5-2.9c1-0.8,2.4-1.2,2.5-2c0.1-0.8-0.9-0.6-0.1-1.8c0.8-1.2,1.9-2,2.9-1.5
	c1,0.5,1.2,0.9,1.8,1.1c0.6,0.1,1.3-0.4,2-0.1c0.8,0.4,0.8,0.7,2.3,0.8c1.5,0.1,5.6,0.8,5.6,0.8s2.3,0.3,4.2-0.2
	c1.9-0.4,2.2-0.4,3.7,0.5c1.6,0.9,3,2,5.1,3.2c2,1.2,5.3,3.5,5.8,3.6c4.1-0.3,4.4-0.5,5,1c0.5,1.5,0.8,1.9,0.5,3.4
	c-0.3,1.5-1.8,4.4-2.7,5.6c-0.9,1.2-3.5,3.1-4.5,4c-1,0.9-3.9,2.7-5.2,3.9c-1.3,1.2-1.3,1.8-1.4,2.1c-0.7,1.9-0.7-0.1-0.8-1
	c-0.1-1-1.1-0.8-2-0.3c-0.9,0.6-1.1,0.7-2.3,0.9c-1.1,0.2-1.2,0.2,0.6-1c1.3-0.8,1-1.5,0.1-1.5c-1.7,0-2.9,0.1-0.5-0.5
	c1.3-0.3,1.5,0,3-0.5c1.5-0.4,3.8-2.8,4.1-3c-1.8-0.8-3.5-1.9-3.5-1.9c-0.7,1.4-4.3,1.7-4.7,1.7c-1.5,2.2-2.3,3.6-3.4,4
	c-1,0.4-2,0.2-3.1,0.2c-1,0-3.5-0.3-3.9-0.1c-0.9,0.5-1.4,0.5-2.3,1c-0.4,0.3-1,0.2-0.1-0.6c0.9-0.8,1.8-0.9,1.7-1.1
	c-0.1-0.5-0.6-0.8-1.5-0.9c-1.4-0.2-1.7-0.7-1.7-0.7l0.1-0.2c0,0,0.7-0.1,2.1,0.2c1.4,0.3,2.3-0.1,2.3-0.1c-2.5-1.2-2.3-1.3,0.4-1
	c1.2,0.1,2.3,0.5,2.6,0.5c0.3,0,0.5-0.3,0.7-1.1c0.2-0.8,1.2-1.5,0.4-1.8c-0.8-0.4-4.7-3.1-4.3-3c-0.2,0.6-0.8,0.2-0.6,0.7
	c0.6,1.6,2,3.8,0.9,3.1c-1.1-0.7-2.2-2.5-2.7-2.2c-0.5,0.3-0.9,0.1-1.4,1c-0.5,0.9-1.2,2.8-1.8,2.8c-0.6,0,0.5-2,0.5-2.8
	c0-0.8,0.6-1.6-0.6-0.6c-1.2,1-3.4,1.8-3.8,2c-0.3,0.2-1.1,0.5,0.7-1c1.8-1.6,3.4-3.3,3.5-4.3c0.1-0.9,0.7-2.8,0.7-2.8
	c-0.5-1.1-0.7-1.5-1.2-1.8c-0.6-0.4-0.8-0.4-3.2-1.2C176.4,78.2,174.6,76.5,174.6,76.5"/>
<rect x="13.6" y="6.3" class="st1" width="203.9" height="94.8"/>
</svg>
