<?xml version="1.0" encoding="utf-8"?>
<!-- Generator: Adobe Illustrator 16.0.0, SVG Export Plug-In . SVG Version: 6.00 Build 0)  -->
<!DOCTYPE svg PUBLIC "-//W3C//DTD SVG 1.1//EN" "http://www.w3.org/Graphics/SVG/1.1/DTD/svg11.dtd">
<svg version="1.1" id="Layer_1" xmlns="http://www.w3.org/2000/svg" xmlns:xlink="http://www.w3.org/1999/xlink" x="0px" y="0px"
	 width="216px" height="216px" viewBox="198 288 216 216" enable-background="new 198 288 216 216" xml:space="preserve">
<path fill="#D95E29" d="M347.812,358.253c-6.621,0.265-16.42,6.355-21.716,9.269c-9.27,5.031-11.917,9.533-16.948,16.948
	c0,0-0.529-0.529-0.266-1.324c0.795-1.589-0.265-2.383-1.323-2.118c0,0,0-0.529,0-0.795c2.912-8.474,6.886-17.478,9.799-19.066
	c0-0.53-0.53-1.06-0.53-1.06c-2.912,3.707-5.031,5.826-9.798,19.861c-0.266,0-0.53,0-0.53,0c-0.529,0-0.265,0.265-1.059,0.265
	c-5.296-14.83-7.68-16.684-10.857-20.655c0,0-0.265,0.529-0.53,1.059c3.178,1.589,7.415,10.858,10.593,19.597
	c-0.265,0.266-0.265,0.795-0.53,1.06c-0.794-0.265-1.589,0.529-1.324,1.589s0.53,1.854,0.265,2.119
	c-1.06-0.795-3.178-5.826-5.562-8.475c-2.118-2.648-6.091-6.355-12.711-9.799c-12.182-6.355-7.15-3.972-11.652-6.355
	c-3.178-1.589-15.095-3.707-23.04,0c-0.794,0.795-0.529,3.442-0.529,4.767c0.265,1.324,0.265,5.032,1.324,8.739
	c1.324,3.708,1.06,6.091,3.178,11.652c1.854,4.502,3.442,7.15,5.826,7.944c2.913,1.06,7.415-0.265,13.506,0.265
	c-5.296,3.178-8.739,9.799-10.328,14.831c-1.324,3.442-0.265,4.767,1.589,8.738c2.118,4.502,4.237,4.237,7.944,8.739
	c3.178,3.707,4.767,3.707,9.534,5.826c4.767,2.118,4.767,1.059,8.739,2.647c3.443,1.323,8.209-0.266,8.475-0.529
	c1.854-1.061,2.913-3.442,3.972-5.826c0.794-1.854,0.265-8.209,0.265-9.27c0,0,0.265,1.854,1.06,2.385
	c0,0.528,0.265,1.589,1.059,1.589s1.06-0.53,1.06-1.324c0,0,0.266,0,1.324-3.178c0,0.794-0.266,5.826-0.529,7.415
	c-0.529,1.589,2.647,6.885,4.236,7.943c0.529,0.529,2.384,1.324,5.826,1.324c3.443,0.266,3.973-1.06,9.533-2.119
	c3.708-0.794,5.297-2.646,6.354-3.441c1.062-0.529,3.974-1.324,6.092-4.237s3.179-3.707,4.503-5.031
	c1.323-1.323,3.441-3.973,4.767-8.209c0.794-2.384-2.118-11.917-9.534-18.538c1.061,0,8.74,0.795,13.242-0.265
	c2.912-0.795,4.236-4.502,5.296-6.62c1.589-2.648,2.118-11.123,3.972-15.36c1.591-3.442,1.591-7.149,1.591-9.004
	C363.438,360.636,358.141,357.458,347.812,358.253"/>
</svg>
