<?xml version="1.0" encoding="utf-8"?>
<!-- Generator: Adobe Illustrator 16.0.0, SVG Export Plug-In . SVG Version: 6.00 Build 0)  -->
<!DOCTYPE svg PUBLIC "-//W3C//DTD SVG 1.1//EN" "http://www.w3.org/Graphics/SVG/1.1/DTD/svg11.dtd">
<svg version="1.1" id="Layer_1" xmlns="http://www.w3.org/2000/svg" xmlns:xlink="http://www.w3.org/1999/xlink" x="0px" y="0px"
	 width="216px" height="216px" viewBox="198 288 216 216" enable-background="new 198 288 216 216" xml:space="preserve">
<path fill="#24428F" d="M346.73,436.434c0.795,0.53,1.323,0,2.383,2.648c0,0,0-1.324-0.794-2.648
	c-4.768-4.235-11.917-12.182-15.891-15.889c6.355-2.913,13.506-7.415,19.332-15.095c3.708-4.768,9.271-21.186,7.415-27.276
	c-1.854-7.15-9.269-8.739-7.68-16.154c1.06-5.562,2.647-4.502,7.415-10.328c0,0-5.826,0.795-8.209,1.324
	c-2.648,0.265-3.443-2.384-11.388-1.589c-7.681,0.794-12.446,6.091-15.096,16.419c-3.973,1.06-10.328,3.178-18.008,10.593
	c-11.652,11.122-6.091,4.767-14.83,14.83c-16.684,19.861-38.134,29.659-32.573,27.806c9.004-2.913,11.387-5.562,13.506-4.768
	c2.119,1.061,1.854-0.528-1.589,3.179c3.972-3.179,7.415-2.913,13.241-3.179c5.032-0.265,6.091,0.529-2.913,9.27
	c-8.739,8.739,2.118,3.178,4.502,2.384c8.209-2.648,10.857-5.562,19.067-6.354c3.178-0.267,5.032,0.265,6.355,1.059
	c1.06,2.913,3.179,8.21,3.441,10.593c0,0.266,0,0.53,0.267,1.061c0,0-0.267,0.265-0.529,0.265c-0.267,0-1.062,0.53-1.324,0.795
	c-1.324,1.059-0.53,1.324-0.53,1.324s-0.265,0,0.53-1.061c0.529-0.528,1.059-0.265,1.854-0.265c0.265,0,0.265,0.794,0.528,1.324
	c0.266,0.529,0,2.383,0.266,2.383c0.265,0,0-1.854,0.529-2.383c0.265-0.267,1.06,2.118,1.06,2.118c0.795,0-0.266-2.118-0.266-2.648
	c0-0.265,0.53,0,0.794,0.53c0.53,0.529,1.324,1.323,1.324,1.323c0-1.323-1.588-1.854-1.854-2.384
	c-1.589-2.118-2.648-7.149-4.236-11.917c1.324,1.061,1.588,1.854,3.972,1.589c3.708-0.528,8.739-1.589,14.036-3.973
	c0,0.267,0.794,1.061,0.794,1.061c2.118,0.795,11.917,10.062,11.389,12.445c-1.061,3.974-0.267,4.237-0.267,4.237
	c0-0.529,0.267-1.589,0.529-1.854c0.266-0.265,0.266-2.117,1.061-1.589c0.265,0.266,0.265,0.266,0.794,2.913
	c0.266,1.589,0.794,2.383,0.794-0.529C345.142,435.375,345.406,435.64,346.73,436.434"/>
</svg>
