<?xml version="1.0" encoding="utf-8"?>
<!-- Generator: Adobe Illustrator 16.0.0, SVG Export Plug-In . SVG Version: 6.00 Build 0)  -->
<!DOCTYPE svg PUBLIC "-//W3C//DTD SVG 1.1//EN" "http://www.w3.org/Graphics/SVG/1.1/DTD/svg11.dtd">
<svg version="1.1" id="Layer_1" xmlns="http://www.w3.org/2000/svg" xmlns:xlink="http://www.w3.org/1999/xlink" x="0px" y="0px"
	 width="216px" height="216px" viewBox="198 288 216 216" enable-background="new 198 288 216 216" xml:space="preserve">
<path fill="#010101" d="M270.741,366.786l-10.593,45.284v28.07c0,1.59,1.059,2.384,2.119,2.384h27.276
	c1.589-1.323,2.383-3.179,2.383-3.179V404.92c0,0,2.648,0,3.973-0.265c1.325-0.266,2.118-1.324,2.118-2.647v-35.222H270.741z"/>
<path fill="#010101" d="M298.282,360.695c0,1.06-0.794,2.118-2.118,2.118h-16.949c-1.059,0-2.119-0.794-2.119-2.118v-9.798
	c0-1.06,0.795-2.119,2.119-2.119h16.949c1.06,0,2.118,0.795,2.118,2.119V360.695z"/>
<path fill="#010101" d="M342.508,366.786l10.593,45.284v28.07c0,1.59-1.06,2.384-2.118,2.384H323.44
	c-1.59-1.323-2.385-3.179-2.385-3.179V404.92c0,0-2.646,0-3.972-0.265c-1.325-0.266-2.119-1.324-2.119-2.647v-35.222H342.508z"/>
<path fill="#010101" d="M314.966,360.695c0,1.06,0.795,2.118,2.119,2.118h16.948c1.06,0,2.119-0.794,2.119-2.118v-9.798
	c0-1.06-0.795-2.119-2.119-2.119h-16.948c-1.06,0-2.119,0.795-2.119,2.119V360.695z"/>
<path fill="#010101" d="M310.729,396.711c0,1.061-0.795,2.118-2.118,2.118h-4.502c-1.06,0-2.118-0.794-2.118-2.118V368.64
	c0-1.059,0.794-2.118,2.118-2.118h4.502c1.06,0,2.118,0.794,2.118,2.118V396.711z"/>
</svg>
