<?xml version="1.0" encoding="utf-8"?>
<!-- Generator: Adobe Illustrator 16.0.0, SVG Export Plug-In . SVG Version: 6.00 Build 0)  -->
<!DOCTYPE svg PUBLIC "-//W3C//DTD SVG 1.1//EN" "http://www.w3.org/Graphics/SVG/1.1/DTD/svg11.dtd">
<svg version="1.1" id="Layer_1" xmlns="http://www.w3.org/2000/svg" xmlns:xlink="http://www.w3.org/1999/xlink" x="0px" y="0px"
	 width="216px" height="216px" viewBox="198 288 216 216" enable-background="new 198 288 216 216" xml:space="preserve">
<path fill="#6E1910" d="M299.942,350.367c-5.297,0.53-0.53,8.21-3.973,9.269c-2.648,0.795-3.442,1.854-8.475,4.237
	c-5.296,2.119-13.771,8.739-15.359,15.625c-2.118,9.004,2.384,12.976,5.031,14.3c-0.265,10.063,6.091,32.573,14.036,37.075
	c7.944,4.502,10.328,6.091,13.241,5.826c7.944-0.795,3.972,3.707,5.561,4.502c1.324,0.794,2.648-0.53,3.443-2.384
	c0.528-1.061-1.854-2.913,1.059-3.974c2.913-1.059,15.36-4.767,18.538-12.445c3.178-7.944,2.913-30.455,3.178-33.367
	c7.415-7.68,5.826-11.917,3.442-16.684s-6.886-8.739-12.182-10.063c-5.298-1.324-12.446-2.384-14.83-3.707
	c-2.385-1.06-4.237-0.795-5.031-4.237C306.298,350.367,303.12,350.103,299.942,350.367"/>
</svg>
