<?xml version="1.0" encoding="utf-8"?>
<!-- Generator: Adobe Illustrator 16.0.0, SVG Export Plug-In . SVG Version: 6.00 Build 0)  -->
<!DOCTYPE svg PUBLIC "-//W3C//DTD SVG 1.1//EN" "http://www.w3.org/Graphics/SVG/1.1/DTD/svg11.dtd">
<svg version="1.1" id="Layer_1" xmlns="http://www.w3.org/2000/svg" xmlns:xlink="http://www.w3.org/1999/xlink" x="0px" y="0px"
	 width="216px" height="216px" viewBox="0 0 216 216" enable-background="new 0 0 216 216" xml:space="preserve">
<path fill="#006B52" d="M51,88.116c0.265-2.118,1.323-5.562,3.972-7.68s6.355-3.178,6.621-5.297
	c0.265-2.118-2.384-1.589-0.266-4.767c2.119-3.178,5.032-5.296,7.68-3.972c2.648,1.324,3.179,2.383,4.768,2.913
	c1.589,0.265,3.442-1.06,5.296-0.266c2.119,1.06,2.119,1.854,6.091,2.119c3.973,0.265,14.83,2.118,14.83,2.118
	s6.091,0.795,11.122-0.529c5.032-1.06,5.826-1.06,9.799,1.324c4.237,2.383,7.944,5.296,13.506,8.474
	c5.297,3.179,14.035,9.27,15.359,9.534c10.857-0.795,11.652-1.324,13.241,2.648c1.324,3.972,2.118,5.031,1.324,9.004
	c-0.795,3.972-4.767,11.651-7.15,14.829c-2.383,3.179-9.269,8.21-11.917,10.593c-2.648,2.384-10.328,7.15-13.771,10.328
	s-3.442,4.768-3.707,5.562c-1.854,5.031-1.854-0.265-2.119-2.648c-0.265-2.647-2.913-2.118-5.296-0.794
	c-2.384,1.589-2.913,1.854-6.091,2.383c-2.913,0.53-3.179,0.53,1.589-2.647c3.442-2.119,2.647-3.973,0.265-3.973
	c-4.502,0-7.68,0.265-1.324-1.324c3.442-0.794,3.973,0,7.944-1.324c3.973-1.06,10.063-7.415,10.857-7.944
	c-4.767-2.119-9.269-5.031-9.269-5.031c-1.854,3.707-11.387,4.502-12.446,4.502c-3.973,5.825-6.091,9.533-9.004,10.593
	c-2.648,1.059-5.296,0.529-8.209,0.529c-2.648,0-9.27-0.795-10.328-0.265c-2.384,1.324-3.708,1.324-6.091,2.647
	c-1.06,0.795-2.648,0.53-0.265-1.589c2.383-2.118,4.767-2.383,4.502-2.912c-0.266-1.324-1.59-2.119-3.973-2.384
	c-3.708-0.529-4.502-1.854-4.502-1.854l0.265-0.53c0,0,1.854-0.265,5.562,0.53c3.707,0.794,6.091-0.265,6.091-0.265
	c-6.621-3.179-6.091-3.443,1.06-2.648c3.178,0.265,6.091,1.324,6.885,1.324c0.795,0,1.324-0.795,1.854-2.913
	c0.53-2.119,3.178-3.973,1.06-4.767c-2.118-1.06-12.446-8.21-11.388-7.945c-0.529,1.589-2.118,0.53-1.589,1.854
	c1.589,4.237,5.297,10.063,2.384,8.21s-5.826-6.62-7.15-5.826c-1.324,0.795-2.383,0.265-3.707,2.648
	c-1.324,2.383-3.178,7.415-4.767,7.415s1.323-5.297,1.323-7.415c0-2.119,1.59-4.237-1.589-1.589
	c-3.178,2.648-9.004,4.767-10.062,5.296c-0.795,0.53-2.913,1.324,1.854-2.647c4.767-4.237,9.004-8.739,9.269-11.388
	c0.265-2.384,1.854-7.415,1.854-7.415c-1.324-2.913-1.854-3.973-3.178-4.767c-1.589-1.06-2.118-1.06-8.474-3.178
	C55.767,92.618,51,88.116,51,88.116"/>
</svg>
